<?xml version="1.0" standalone="no"?>
<!DOCTYPE svg PUBLIC "-//W3C//DTD SVG 20010904//EN"
 "http://www.w3.org/TR/2001/REC-SVG-20010904/DTD/svg10.dtd">
<svg version="1.0" xmlns="http://www.w3.org/2000/svg"
 width="612.000000pt" height="408.000000pt" viewBox="0 0 612.000000 408.000000"
 preserveAspectRatio="xMidYMid meet">
<metadata>
Created by potrace 1.16, written by Peter Selinger 2001-2019
</metadata>
<g transform="translate(0.000000,408.000000) scale(0.100000,-0.100000)"
fill="#000000" stroke="none">
<path d="M3553 3388 c-29 -8 -60 -42 -55 -60 1 -4 -7 -10 -18 -13 -11 -4 -18
-10 -15 -14 2 -5 -4 -18 -15 -31 -10 -12 -21 -27 -22 -32 -2 -6 -10 -9 -16 -7
-9 3 -5 15 13 39 31 42 32 59 3 34 l-23 -19 18 22 c11 12 26 19 35 17 14 -4
13 -3 -1 6 -23 15 -45 7 -58 -22 l-10 -23 5 22 c4 24 -8 40 -19 24 -3 -6 -12
-8 -20 -4 -8 3 -15 0 -15 -6 0 -6 8 -11 18 -12 14 0 14 -2 2 -7 -8 -4 -15 -14
-15 -22 0 -8 -7 -15 -15 -16 -26 -1 -70 -27 -70 -41 0 -7 -5 -13 -11 -13 -5 0
-8 -4 -4 -9 3 -5 -3 -12 -14 -16 -23 -7 -64 -70 -67 -103 -2 -13 -8 -30 -14
-37 -7 -8 -9 -19 -5 -25 3 -5 2 -10 -3 -10 -5 0 -9 -6 -10 -12 -6 -43 -10 -58
-27 -94 -34 -71 -21 -200 29 -301 15 -29 26 -68 26 -91 0 -23 5 -43 13 -45 10
-4 10 -6 0 -6 -7 -1 -13 -8 -13 -17 0 -8 4 -12 10 -9 7 4 7 -3 0 -20 -20 -51
-13 -80 24 -100 32 -17 73 -15 62 4 -3 5 3 11 14 14 29 7 25 30 -15 86 -59 82
-86 152 -96 254 -4 50 -6 108 -3 127 10 58 35 143 54 180 10 19 24 50 30 68
12 32 63 103 74 103 3 0 21 6 40 14 20 8 41 15 48 15 9 0 9 3 -2 10 -12 8 -9
9 12 8 21 -2 24 -5 16 -15 -8 -10 -7 -13 5 -13 8 0 20 -7 27 -15 7 -8 32 -25
57 -37 40 -20 82 -68 87 -101 1 -6 10 -24 20 -40 22 -33 9 -57 -33 -57 -14 0
-33 -5 -41 -10 -11 -7 -6 -10 21 -10 74 0 95 -15 124 -88 22 -54 26 -80 24
-137 -1 -38 1 -87 5 -107 11 -50 -18 -107 -103 -200 -36 -39 -61 -69 -55 -65
6 3 19 -2 28 -12 12 -13 15 -31 11 -77 -2 -32 -7 -70 -11 -84 -3 -14 -7 -65
-9 -115 l-4 -90 -73 -22 c-142 -43 -248 -24 -329 57 -53 53 -76 111 -86 216
-4 46 -2 70 10 94 13 25 13 30 2 20 -8 -6 -17 -20 -20 -31 -4 -11 -11 -17 -16
-13 -6 3 -8 12 -5 20 13 35 -40 -3 -79 -56 l-26 -35 7 29 c6 25 5 28 -10 23
-10 -4 -19 -7 -21 -7 -3 0 -16 -17 -31 -37 -17 -25 -24 -30 -19 -15 8 26 7 26
-38 7 -43 -18 -67 -49 -68 -90 l-1 -30 -7 28 -6 29 -21 -29 c-27 -36 -44 -113
-46 -211 l-1 -77 -7 65 c-4 36 -8 54 -9 40 -3 -24 -4 -24 -11 5 -7 27 -8 25
-10 -20 -1 -27 -6 -63 -10 -80 -6 -23 -8 -14 -9 40 -1 39 -5 76 -10 84 -13 20
-49 -100 -62 -203 -6 -44 -15 -89 -21 -100 -12 -22 -29 -101 -20 -91 3 3 13
-17 22 -43 28 -80 103 -221 135 -255 l30 -32 6 60 6 60 1 -52 c1 -28 9 -82 18
-120 16 -66 15 -114 -3 -232 -4 -29 -3 -42 4 -38 13 8 34 -15 35 -40 1 -10 -6
-43 -16 -73 -13 -44 -14 -52 -2 -40 8 8 19 31 24 50 10 35 10 35 11 6 1 -16 4
-27 7 -23 6 6 56 -28 98 -65 10 -9 25 -14 34 -11 10 4 13 2 8 -6 -6 -9 0 -10
20 -5 19 5 25 4 20 -5 -6 -8 0 -10 18 -5 13 3 31 2 38 -2 7 -4 29 -7 50 -5 21
1 38 -2 38 -7 0 -6 9 -8 20 -5 11 3 30 -1 42 -9 13 -8 30 -14 40 -13 9 2 19
-6 22 -19 4 -12 9 -17 13 -11 11 15 52 13 62 -3 5 -8 11 -13 15 -12 3 1 24 -1
46 -5 46 -8 64 -25 26 -25 -14 0 -26 -4 -26 -9 0 -5 25 -7 55 -5 l55 5 -5 -33
c-3 -18 -3 -27 1 -20 3 6 10 10 14 7 5 -3 7 4 5 15 -3 15 1 20 18 20 18 0 19
-2 7 -10 -10 -6 -11 -10 -2 -10 6 0 12 -8 13 -17 1 -12 4 -9 8 7 4 14 3 31 -2
38 -7 8 -5 12 7 12 11 0 16 -9 16 -32 0 -37 7 -34 12 4 7 48 18 43 20 -8 1
-43 2 -45 5 -12 5 47 22 50 24 6 2 -32 2 -32 6 -5 3 16 -1 35 -7 42 -10 12 -9
16 1 19 8 2 39 11 70 20 74 21 155 21 163 0 3 -9 15 -14 28 -12 17 2 23 10 23
28 0 14 5 24 12 23 14 -3 22 20 27 71 2 20 8 42 14 49 6 7 14 40 18 72 8 68
23 85 84 104 48 14 71 24 110 46 33 19 97 19 134 0 16 -9 46 -16 65 -16 20 0
55 -1 78 -3 36 -3 47 1 72 25 17 16 28 35 25 42 -2 7 5 22 16 32 20 19 21 19
14 -1 -7 -17 -6 -18 10 -5 35 29 78 102 73 123 -4 14 16 65 59 148 36 71 68
144 71 164 3 20 9 36 13 36 4 0 6 13 5 30 -1 22 -21 50 -76 107 -41 43 -105
125 -143 182 -80 120 -162 206 -258 268 -36 24 -69 43 -73 43 -3 0 -25 13 -48
29 -23 15 -65 39 -93 51 l-51 24 -1 100 c0 69 -5 114 -16 141 -10 26 -17 84
-20 170 -3 72 -7 144 -9 160 -7 62 -42 220 -49 223 -5 2 -8 13 -8 25 0 59
-145 284 -177 275 -4 -1 -30 8 -57 20 -77 35 -140 45 -193 30z"/>
<path d="M3855 251 c-19 -8 -19 -8 0 -19 20 -11 20 -11 0 -12 -18 -1 -18 -2 3
-10 36 -15 25 -19 -20 -7 -34 8 -38 12 -22 18 32 12 -5 20 -46 10 l-35 -9 30
-2 c23 -2 25 -4 10 -8 -27 -7 82 -33 111 -26 11 3 26 -1 32 -9 10 -12 4 -15
-39 -21 -47 -6 -50 -8 -37 -24 8 -9 20 -32 28 -49 7 -18 17 -33 22 -33 6 0 7
7 4 16 -6 14 -4 15 9 4 14 -12 15 -11 4 13 -7 15 -18 27 -26 27 -7 0 -13 7
-13 15 0 8 3 14 8 14 29 -5 62 3 56 12 -4 8 1 9 17 4 19 -5 21 -4 9 4 -13 10
-13 11 0 11 13 0 13 1 0 10 -8 5 -11 12 -7 16 4 4 13 2 19 -4 7 -7 16 -12 22
-12 5 0 -2 9 -15 21 -19 16 -21 22 -9 29 16 10 33 3 25 -10 -3 -5 0 -12 6 -16
8 -5 9 -3 4 6 -6 10 -4 12 9 7 27 -11 8 11 -24 28 -28 15 -80 17 -80 4 0 -4
10 -13 23 -22 12 -8 18 -19 14 -23 -4 -5 -12 -2 -17 5 -6 11 -9 10 -13 -5 -4
-13 -5 -11 -4 6 1 16 -3 25 -13 26 -31 2 -34 6 -15 14 25 11 -2 12 -30 1z"/>
</g>
</svg>
